<?xml version="1.0" encoding="utf-8" standalone="no"?>
<!DOCTYPE svg PUBLIC "-//W3C//DTD SVG 1.1//EN"
  "http://www.w3.org/Graphics/SVG/1.1/DTD/svg11.dtd">
<svg xmlns:xlink="http://www.w3.org/1999/xlink" width="720pt" height="360pt" viewBox="0 0 720 360" xmlns="http://www.w3.org/2000/svg" version="1.1">
 <metadata>
  <rdf:RDF xmlns:dc="http://purl.org/dc/elements/1.1/" xmlns:cc="http://creativecommons.org/ns#" xmlns:rdf="http://www.w3.org/1999/02/22-rdf-syntax-ns#">
   <cc:Work>
    <dc:type rdf:resource="http://purl.org/dc/dcmitype/StillImage"/>
    <dc:date>2026-05-26T22:11:10.792451</dc:date>
    <dc:format>image/svg+xml</dc:format>
    <dc:creator>
     <cc:Agent>
      <dc:title>Matplotlib v3.10.8, https://matplotlib.org/</dc:title>
     </cc:Agent>
    </dc:creator>
   </cc:Work>
  </rdf:RDF>
 </metadata>
 <defs>
  <style type="text/css">*{stroke-linejoin: round; stroke-linecap: butt}</style>
 </defs>
 <g id="figure_1">
  <g id="patch_1">
   <path d="M 0 360 
L 720 360 
L 720 0 
L 0 0 
z
" style="fill: #ffffff"/>
  </g>
  <g id="axes_1">
   <g id="patch_2">
    <path d="M 182.563928 180 
L 276.563928 180 
L 182.563928 86 
z
" clip-path="url(#p3ef00190a0)" style="fill: url(#h25fe5c85bb)"/>
   </g>
   <g id="line2d_1">
    <path d="M 276.563928 180 
L 182.563928 180 
M 182.563928 86 
L 182.563928 180 
M 182.563928 86 
L 276.563928 180 
" clip-path="url(#p3ef00190a0)" style="fill: none; stroke: #000000; stroke-width: 1.5; stroke-linecap: square"/>
   </g>
   <g id="patch_3">
    <path d="M 323.563928 180 
L 309.463928 183.76 
L 309.463928 180.047 
L 41.563928 180.047 
L 41.563928 179.953 
L 309.463928 179.953 
L 309.463928 176.24 
z
" clip-path="url(#p3ef00190a0)" style="stroke: #000000; stroke-linejoin: miter"/>
   </g>
   <g id="patch_4">
    <path d="M 182.563928 39 
L 186.323928 53.1 
L 182.610928 53.1 
L 182.610928 321 
L 182.516928 321 
L 182.516928 53.1 
L 178.803928 53.1 
z
" clip-path="url(#p3ef00190a0)" style="stroke: #000000; stroke-linejoin: miter"/>
   </g>
   <g id="line2d_2"/>
   <g id="PathCollection_1">
    <defs>
     <path id="m9a81d9b953" d="M -3.535534 3.535534 
L 3.535534 3.535534 
L 3.535534 -3.535534 
L -3.535534 -3.535534 
z
" style="stroke: #ff0000"/>
    </defs>
    <g clip-path="url(#p3ef00190a0)">
     <use xlink:href="#m9a81d9b953" x="182.563928" y="180" style="fill: #ff0000; stroke: #ff0000"/>
     <use xlink:href="#m9a81d9b953" x="276.563928" y="180" style="fill: #ff0000; stroke: #ff0000"/>
     <use xlink:href="#m9a81d9b953" x="182.563928" y="86" style="fill: #ff0000; stroke: #ff0000"/>
    </g>
   </g>
   <g id="text_1">
    <!-- $\xi_1$ -->
    <g transform="translate(332.963928 189.4) scale(0.14 -0.14)">
     <defs>
      <path id="DejaVuSans-Oblique-3be" d="M 2016 397 
Q 2428 394 2628 159 
Q 2844 -88 2772 -463 
Q 2700 -822 2422 -1072 
Q 2119 -1344 1609 -1344 
Q 1656 -1109 1700 -872 
Q 1913 -888 2072 -750 
Q 2194 -641 2216 -525 
Q 2247 -359 2175 -222 
Q 2100 -91 1922 -91 
Q -25 -91 241 1275 
Q 422 2213 1516 2488 
Q 663 2600 822 3413 
Q 941 4028 1678 4284 
L 1028 4284 
L 1141 4863 
L 3606 4863 
L 3494 4284 
Q 1528 4284 1350 3375 
Q 1234 2778 2881 2750 
L 2778 2219 
Q 1009 2288 819 1275 
Q 659 428 2016 397 
z
" transform="scale(0.015625)"/>
      <path id="DejaVuSans-31" d="M 794 531 
L 1825 531 
L 1825 4091 
L 703 3866 
L 703 4441 
L 1819 4666 
L 2450 4666 
L 2450 531 
L 3481 531 
L 3481 0 
L 794 0 
L 794 531 
z
" transform="scale(0.015625)"/>
     </defs>
     <use xlink:href="#DejaVuSans-Oblique-3be" transform="translate(0 0.015625)"/>
     <use xlink:href="#DejaVuSans-31" transform="translate(55.761719 -16.390625) scale(0.7)"/>
    </g>
   </g>
   <g id="text_2">
    <!-- $\xi_2$ -->
    <g transform="translate(191.963928 29.6) scale(0.14 -0.14)">
     <defs>
      <path id="DejaVuSans-32" d="M 1228 531 
L 3431 531 
L 3431 0 
L 469 0 
L 469 531 
Q 828 903 1448 1529 
Q 2069 2156 2228 2338 
Q 2531 2678 2651 2914 
Q 2772 3150 2772 3378 
Q 2772 3750 2511 3984 
Q 2250 4219 1831 4219 
Q 1534 4219 1204 4116 
Q 875 4013 500 3803 
L 500 4441 
Q 881 4594 1212 4672 
Q 1544 4750 1819 4750 
Q 2544 4750 2975 4387 
Q 3406 4025 3406 3419 
Q 3406 3131 3298 2873 
Q 3191 2616 2906 2266 
Q 2828 2175 2409 1742 
Q 1991 1309 1228 531 
z
" transform="scale(0.015625)"/>
     </defs>
     <use xlink:href="#DejaVuSans-Oblique-3be" transform="translate(0 0.015625)"/>
     <use xlink:href="#DejaVuSans-32" transform="translate(55.761719 -16.390625) scale(0.7)"/>
    </g>
   </g>
   <g id="text_3">
    <!-- $0$ -->
    <g transform="translate(163.763928 198.8) scale(0.15 -0.15)">
     <defs>
      <path id="DejaVuSans-30" d="M 2034 4250 
Q 1547 4250 1301 3770 
Q 1056 3291 1056 2328 
Q 1056 1369 1301 889 
Q 1547 409 2034 409 
Q 2525 409 2770 889 
Q 3016 1369 3016 2328 
Q 3016 3291 2770 3770 
Q 2525 4250 2034 4250 
z
M 2034 4750 
Q 2819 4750 3233 4129 
Q 3647 3509 3647 2328 
Q 3647 1150 3233 529 
Q 2819 -91 2034 -91 
Q 1250 -91 836 529 
Q 422 1150 422 2328 
Q 422 3509 836 4129 
Q 1250 4750 2034 4750 
z
" transform="scale(0.015625)"/>
     </defs>
     <use xlink:href="#DejaVuSans-30" transform="translate(0 0.78125)"/>
    </g>
   </g>
  </g>
  <g id="axes_2">
   <g id="patch_5">
    <path d="M 669.036072 48.4 
L 481.036072 95.4 
L 575.036072 236.4 
z
" clip-path="url(#p854ae250b5)" style="fill: url(#h4795a1e76a)"/>
   </g>
   <g id="line2d_3">
    <path d="M 481.036072 95.4 
L 669.036072 48.4 
M 575.036072 236.4 
L 669.036072 48.4 
M 575.036072 236.4 
L 481.036072 95.4 
" clip-path="url(#p854ae250b5)" style="fill: none; stroke: #000000; stroke-width: 1.5; stroke-linecap: square"/>
   </g>
   <g id="patch_6">
    <path d="M 678.436072 180 
L 664.336072 183.76 
L 664.336072 180.047 
L 396.436072 180.047 
L 396.436072 179.953 
L 664.336072 179.953 
L 664.336072 176.24 
z
" clip-path="url(#p854ae250b5)" style="stroke: #000000; stroke-linejoin: miter"/>
   </g>
   <g id="patch_7">
    <path d="M 537.436072 39 
L 541.196072 53.1 
L 537.483072 53.1 
L 537.483072 321 
L 537.389072 321 
L 537.389072 53.1 
L 533.676072 53.1 
z
" clip-path="url(#p854ae250b5)" style="stroke: #000000; stroke-linejoin: miter"/>
   </g>
   <g id="line2d_4"/>
   <g id="PathCollection_2">
    <defs>
     <path id="m5148f2b523" d="M -3.535534 3.535534 
L 3.535534 3.535534 
L 3.535534 -3.535534 
L -3.535534 -3.535534 
z
" style="stroke: #0000ff"/>
    </defs>
    <g clip-path="url(#p854ae250b5)">
     <use xlink:href="#m5148f2b523" x="669.036072" y="48.4" style="fill: #0000ff; stroke: #0000ff"/>
     <use xlink:href="#m5148f2b523" x="481.036072" y="95.4" style="fill: #0000ff; stroke: #0000ff"/>
     <use xlink:href="#m5148f2b523" x="575.036072" y="236.4" style="fill: #0000ff; stroke: #0000ff"/>
    </g>
   </g>
   <g id="text_4">
    <!-- x -->
    <g transform="translate(687.836072 189.4) scale(0.14 -0.14)">
     <defs>
      <path id="DejaVuSans-78" d="M 3513 3500 
L 2247 1797 
L 3578 0 
L 2900 0 
L 1881 1375 
L 863 0 
L 184 0 
L 1544 1831 
L 300 3500 
L 978 3500 
L 1906 2253 
L 2834 3500 
L 3513 3500 
z
" transform="scale(0.015625)"/>
     </defs>
     <use xlink:href="#DejaVuSans-78"/>
    </g>
   </g>
   <g id="text_5">
    <!-- y -->
    <g transform="translate(546.836072 29.6) scale(0.14 -0.14)">
     <defs>
      <path id="DejaVuSans-79" d="M 2059 -325 
Q 1816 -950 1584 -1140 
Q 1353 -1331 966 -1331 
L 506 -1331 
L 506 -850 
L 844 -850 
Q 1081 -850 1212 -737 
Q 1344 -625 1503 -206 
L 1606 56 
L 191 3500 
L 800 3500 
L 1894 763 
L 2988 3500 
L 3597 3500 
L 2059 -325 
z
" transform="scale(0.015625)"/>
     </defs>
     <use xlink:href="#DejaVuSans-79"/>
    </g>
   </g>
   <g id="text_6">
    <!-- $0$ -->
    <g transform="translate(518.636072 198.8) scale(0.15 -0.15)">
     <use xlink:href="#DejaVuSans-30" transform="translate(0 0.78125)"/>
    </g>
   </g>
  </g>
 </g>
 <defs>
  <clipPath id="p3ef00190a0">
   <rect x="13.363928" y="10.8" width="338.4" height="338.4"/>
  </clipPath>
  <clipPath id="p854ae250b5">
   <rect x="368.236072" y="10.8" width="338.4" height="338.4"/>
  </clipPath>
 </defs>
 <defs>
  <pattern id="h25fe5c85bb" patternUnits="userSpaceOnUse" x="0" y="0" width="72" height="72">
   <rect x="0" y="0" width="73" height="73" fill="none"/>
   <path d="M -36 36 
L 36 -36 
M -32 40 
L 40 -32 
M -28 44 
L 44 -28 
M -24 48 
L 48 -24 
M -20 52 
L 52 -20 
M -16 56 
L 56 -16 
M -12 60 
L 60 -12 
M -8 64 
L 64 -8 
M -4 68 
L 68 -4 
M 0 72 
L 72 0 
M 4 76 
L 76 4 
M 8 80 
L 80 8 
M 12 84 
L 84 12 
M 16 88 
L 88 16 
M 20 92 
L 92 20 
M 24 96 
L 96 24 
M 28 100 
L 100 28 
M 32 104 
L 104 32 
M 36 108 
L 108 36 
" style="fill: #ff0000; stroke: #ff0000; stroke-width: 1.0; stroke-linecap: butt; stroke-linejoin: miter"/>
  </pattern>
  <pattern id="h4795a1e76a" patternUnits="userSpaceOnUse" x="0" y="0" width="72" height="72">
   <rect x="0" y="0" width="73" height="73" fill="none"/>
   <path d="M -36 36 
L 36 -36 
M -32 40 
L 40 -32 
M -28 44 
L 44 -28 
M -24 48 
L 48 -24 
M -20 52 
L 52 -20 
M -16 56 
L 56 -16 
M -12 60 
L 60 -12 
M -8 64 
L 64 -8 
M -4 68 
L 68 -4 
M 0 72 
L 72 0 
M 4 76 
L 76 4 
M 8 80 
L 80 8 
M 12 84 
L 84 12 
M 16 88 
L 88 16 
M 20 92 
L 92 20 
M 24 96 
L 96 24 
M 28 100 
L 100 28 
M 32 104 
L 104 32 
M 36 108 
L 108 36 
" style="fill: #0000ff; stroke: #0000ff; stroke-width: 1.0; stroke-linecap: butt; stroke-linejoin: miter"/>
  </pattern>
 </defs>
</svg>
