<?xml version="1.0" encoding="utf-8" standalone="no"?>
<!DOCTYPE svg PUBLIC "-//W3C//DTD SVG 1.1//EN"
  "http://www.w3.org/Graphics/SVG/1.1/DTD/svg11.dtd">
<svg xmlns:xlink="http://www.w3.org/1999/xlink" width="1080pt" height="504pt" viewBox="0 0 1080 504" xmlns="http://www.w3.org/2000/svg" version="1.1">
 <metadata>
  <rdf:RDF xmlns:dc="http://purl.org/dc/elements/1.1/" xmlns:cc="http://creativecommons.org/ns#" xmlns:rdf="http://www.w3.org/1999/02/22-rdf-syntax-ns#">
   <cc:Work>
    <dc:type rdf:resource="http://purl.org/dc/dcmitype/StillImage"/>
    <dc:date>2026-05-26T22:42:37.573212</dc:date>
    <dc:format>image/svg+xml</dc:format>
    <dc:creator>
     <cc:Agent>
      <dc:title>Matplotlib v3.10.8, https://matplotlib.org/</dc:title>
     </cc:Agent>
    </dc:creator>
   </cc:Work>
  </rdf:RDF>
 </metadata>
 <defs>
  <style type="text/css">*{stroke-linejoin: round; stroke-linecap: butt}</style>
 </defs>
 <g id="figure_1">
  <g id="patch_1">
   <path d="M 0 504 
L 1080 504 
L 1080 0 
L 0 0 
z
" style="fill: #ffffff"/>
  </g>
  <g id="axes_1">
   <g id="patch_2">
    <path d="M 169.328571 355.371429 
L 307.157143 355.371429 
L 169.328571 217.542857 
z
" clip-path="url(#p3c353984a1)" style="fill: url(#h20a0761daf)"/>
   </g>
   <g id="line2d_1">
    <path d="M 307.157143 355.371429 
L 169.328571 355.371429 
M 169.328571 217.542857 
L 169.328571 355.371429 
M 169.328571 217.542857 
L 307.157143 355.371429 
" clip-path="url(#p3c353984a1)" style="fill: none; stroke: #000000; stroke-width: 1.5; stroke-linecap: square"/>
   </g>
   <g id="patch_3">
    <path d="M 376.071429 355.371429 
L 355.397143 360.884571 
L 355.397143 355.440343 
L 100.414286 355.440343 
L 100.414286 355.302514 
L 355.397143 355.302514 
L 355.397143 349.858286 
z
" clip-path="url(#p3c353984a1)" style="stroke: #000000; stroke-linejoin: miter"/>
   </g>
   <g id="patch_4">
    <path d="M 169.328571 148.628571 
L 174.841714 169.302857 
L 169.397486 169.302857 
L 169.397486 424.285714 
L 169.259657 424.285714 
L 169.259657 169.302857 
L 163.815429 169.302857 
z
" clip-path="url(#p3c353984a1)" style="stroke: #000000; stroke-linejoin: miter"/>
   </g>
   <g id="line2d_2"/>
   <g id="PathCollection_1">
    <defs>
     <path id="m361bfdf377" d="M -3.535534 3.535534 
L 3.535534 3.535534 
L 3.535534 -3.535534 
L -3.535534 -3.535534 
z
" style="stroke: #ff0000"/>
    </defs>
    <g clip-path="url(#p3c353984a1)">
     <use xlink:href="#m361bfdf377" x="169.328571" y="355.371429" style="fill: #ff0000; stroke: #ff0000"/>
     <use xlink:href="#m361bfdf377" x="307.157143" y="355.371429" style="fill: #ff0000; stroke: #ff0000"/>
     <use xlink:href="#m361bfdf377" x="169.328571" y="217.542857" style="fill: #ff0000; stroke: #ff0000"/>
    </g>
   </g>
   <g id="text_1">
    <!-- $\xi_1$ -->
    <g transform="translate(389.854286 369.154286) scale(0.14 -0.14)">
     <defs>
      <path id="DejaVuSans-Oblique-3be" d="M 2016 397 
Q 2428 394 2628 159 
Q 2844 -88 2772 -463 
Q 2700 -822 2422 -1072 
Q 2119 -1344 1609 -1344 
Q 1656 -1109 1700 -872 
Q 1913 -888 2072 -750 
Q 2194 -641 2216 -525 
Q 2247 -359 2175 -222 
Q 2100 -91 1922 -91 
Q -25 -91 241 1275 
Q 422 2213 1516 2488 
Q 663 2600 822 3413 
Q 941 4028 1678 4284 
L 1028 4284 
L 1141 4863 
L 3606 4863 
L 3494 4284 
Q 1528 4284 1350 3375 
Q 1234 2778 2881 2750 
L 2778 2219 
Q 1009 2288 819 1275 
Q 659 428 2016 397 
z
" transform="scale(0.015625)"/>
      <path id="DejaVuSans-31" d="M 794 531 
L 1825 531 
L 1825 4091 
L 703 3866 
L 703 4441 
L 1819 4666 
L 2450 4666 
L 2450 531 
L 3481 531 
L 3481 0 
L 794 0 
L 794 531 
z
" transform="scale(0.015625)"/>
     </defs>
     <use xlink:href="#DejaVuSans-Oblique-3be" transform="translate(0 0.015625)"/>
     <use xlink:href="#DejaVuSans-31" transform="translate(55.761719 -16.390625) scale(0.7)"/>
    </g>
   </g>
   <g id="text_2">
    <!-- $\xi_2$ -->
    <g transform="translate(183.111429 134.845714) scale(0.14 -0.14)">
     <defs>
      <path id="DejaVuSans-32" d="M 1228 531 
L 3431 531 
L 3431 0 
L 469 0 
L 469 531 
Q 828 903 1448 1529 
Q 2069 2156 2228 2338 
Q 2531 2678 2651 2914 
Q 2772 3150 2772 3378 
Q 2772 3750 2511 3984 
Q 2250 4219 1831 4219 
Q 1534 4219 1204 4116 
Q 875 4013 500 3803 
L 500 4441 
Q 881 4594 1212 4672 
Q 1544 4750 1819 4750 
Q 2544 4750 2975 4387 
Q 3406 4025 3406 3419 
Q 3406 3131 3298 2873 
Q 3191 2616 2906 2266 
Q 2828 2175 2409 1742 
Q 1991 1309 1228 531 
z
" transform="scale(0.015625)"/>
     </defs>
     <use xlink:href="#DejaVuSans-Oblique-3be" transform="translate(0 0.015625)"/>
     <use xlink:href="#DejaVuSans-32" transform="translate(55.761719 -16.390625) scale(0.7)"/>
    </g>
   </g>
   <g id="text_3">
    <!-- $0$ -->
    <g transform="translate(141.762857 382.937143) scale(0.15 -0.15)">
     <defs>
      <path id="DejaVuSans-30" d="M 2034 4250 
Q 1547 4250 1301 3770 
Q 1056 3291 1056 2328 
Q 1056 1369 1301 889 
Q 1547 409 2034 409 
Q 2525 409 2770 889 
Q 3016 1369 3016 2328 
Q 3016 3291 2770 3770 
Q 2525 4250 2034 4250 
z
M 2034 4750 
Q 2819 4750 3233 4129 
Q 3647 3509 3647 2328 
Q 3647 1150 3233 529 
Q 2819 -91 2034 -91 
Q 1250 -91 836 529 
Q 422 1150 422 2328 
Q 422 3509 836 4129 
Q 1250 4750 2034 4750 
z
" transform="scale(0.015625)"/>
     </defs>
     <use xlink:href="#DejaVuSans-30" transform="translate(0 0.78125)"/>
    </g>
   </g>
   <g id="text_4">
    <!-- $1$ -->
    <g transform="translate(141.762857 217.542857) scale(0.15 -0.15)">
     <use xlink:href="#DejaVuSans-31" transform="translate(0 0.09375)"/>
    </g>
   </g>
   <g id="text_5">
    <!-- $1$ -->
    <g transform="translate(300.265714 389.828571) scale(0.15 -0.15)">
     <use xlink:href="#DejaVuSans-31" transform="translate(0 0.09375)"/>
    </g>
   </g>
  </g>
  <g id="axes_2">
   <g id="patch_5">
    <path d="M 896.888571 162.411429 
L 621.231429 231.325714 
L 759.06 438.068571 
z
" clip-path="url(#p53bd86f32c)" style="fill: url(#hd1d4aae730)"/>
   </g>
   <g id="line2d_3">
    <path d="M 621.231429 231.325714 
L 896.888571 162.411429 
M 759.06 438.068571 
L 896.888571 162.411429 
M 759.06 438.068571 
L 621.231429 231.325714 
" clip-path="url(#p53bd86f32c)" style="fill: none; stroke: #000000; stroke-width: 1.5; stroke-linecap: square"/>
   </g>
   <g id="patch_6">
    <path d="M 910.671429 355.371429 
L 889.997143 360.884571 
L 889.997143 355.440343 
L 635.014286 355.440343 
L 635.014286 355.302514 
L 889.997143 355.302514 
L 889.997143 349.858286 
z
" clip-path="url(#p53bd86f32c)" style="stroke: #000000; stroke-linejoin: miter"/>
   </g>
   <g id="patch_7">
    <path d="M 703.928571 148.628571 
L 709.441714 169.302857 
L 703.997486 169.302857 
L 703.997486 424.285714 
L 703.859657 424.285714 
L 703.859657 169.302857 
L 698.415429 169.302857 
z
" clip-path="url(#p53bd86f32c)" style="stroke: #000000; stroke-linejoin: miter"/>
   </g>
   <g id="line2d_4"/>
   <g id="PathCollection_2">
    <defs>
     <path id="mc96a54d182" d="M -3.535534 3.535534 
L 3.535534 3.535534 
L 3.535534 -3.535534 
L -3.535534 -3.535534 
z
" style="stroke: #0000ff"/>
    </defs>
    <g clip-path="url(#p53bd86f32c)">
     <use xlink:href="#mc96a54d182" x="896.888571" y="162.411429" style="fill: #0000ff; stroke: #0000ff"/>
     <use xlink:href="#mc96a54d182" x="621.231429" y="231.325714" style="fill: #0000ff; stroke: #0000ff"/>
     <use xlink:href="#mc96a54d182" x="759.06" y="438.068571" style="fill: #0000ff; stroke: #0000ff"/>
    </g>
   </g>
   <g id="text_6">
    <!-- x -->
    <g transform="translate(924.454286 369.154286) scale(0.14 -0.14)">
     <defs>
      <path id="DejaVuSans-78" d="M 3513 3500 
L 2247 1797 
L 3578 0 
L 2900 0 
L 1881 1375 
L 863 0 
L 184 0 
L 1544 1831 
L 300 3500 
L 978 3500 
L 1906 2253 
L 2834 3500 
L 3513 3500 
z
" transform="scale(0.015625)"/>
     </defs>
     <use xlink:href="#DejaVuSans-78"/>
    </g>
   </g>
   <g id="text_7">
    <!-- y -->
    <g transform="translate(717.711429 134.845714) scale(0.14 -0.14)">
     <defs>
      <path id="DejaVuSans-79" d="M 2059 -325 
Q 1816 -950 1584 -1140 
Q 1353 -1331 966 -1331 
L 506 -1331 
L 506 -850 
L 844 -850 
Q 1081 -850 1212 -737 
Q 1344 -625 1503 -206 
L 1606 56 
L 191 3500 
L 800 3500 
L 1894 763 
L 2988 3500 
L 3597 3500 
L 2059 -325 
z
" transform="scale(0.015625)"/>
     </defs>
     <use xlink:href="#DejaVuSans-79"/>
    </g>
   </g>
   <g id="text_8">
    <!-- $0$ -->
    <g transform="translate(676.362857 382.937143) scale(0.15 -0.15)">
     <use xlink:href="#DejaVuSans-30" transform="translate(0 0.78125)"/>
    </g>
   </g>
  </g>
  <g id="patch_8">
   <path d="M 266.957331 257.669606 
Q 435.250286 78.672857 662.58 176.194286 
" style="fill: none; stroke: #000000; stroke-width: 1.5; stroke-linecap: round"/>
   <path d="M 275.351452 254.581121 
L 266.957331 257.669606 
L 269.523015 249.101218 
" style="fill: none; stroke: #000000; stroke-width: 1.5; stroke-linecap: round"/>
  </g>
  <g id="text_9">
   <!-- $\mathbf{F}_{\mathbb{T}}$ -->
   <g transform="translate(474.975 131.712656) scale(0.21 -0.21)">
    <defs>
     <path id="DejaVuSans-Bold-46" d="M 588 4666 
L 3834 4666 
L 3834 3756 
L 1791 3756 
L 1791 2888 
L 3713 2888 
L 3713 1978 
L 1791 1978 
L 1791 0 
L 588 0 
L 588 4666 
z
" transform="scale(0.015625)"/>
     <path id="STIXNonUnicode-Italic-e160" d="M 4365 4179 
L 4301 3942 
L 2765 3942 
L 1722 0 
L 736 0 
L 1792 3942 
L 192 3942 
L 256 4179 
L 4365 4179 
z
M 2515 3872 
L 2016 3872 
L 1043 237 
L 1542 237 
L 2515 3872 
z
" transform="scale(0.015625)"/>
    </defs>
    <use xlink:href="#DejaVuSans-Bold-46" transform="translate(0 0.09375)"/>
    <use xlink:href="#STIXNonUnicode-Italic-e160" transform="translate(69.267578 -16.3125) scale(0.7)"/>
   </g>
  </g>
 </g>
 <defs>
  <clipPath id="p3c353984a1">
   <rect x="31.5" y="10.8" width="482.4" height="482.4"/>
  </clipPath>
  <clipPath id="p53bd86f32c">
   <rect x="566.1" y="10.8" width="482.4" height="482.4"/>
  </clipPath>
 </defs>
 <defs>
  <pattern id="h20a0761daf" patternUnits="userSpaceOnUse" x="0" y="0" width="72" height="72">
   <rect x="0" y="0" width="73" height="73" fill="none"/>
   <path d="M -36 36 
L 36 -36 
M -32 40 
L 40 -32 
M -28 44 
L 44 -28 
M -24 48 
L 48 -24 
M -20 52 
L 52 -20 
M -16 56 
L 56 -16 
M -12 60 
L 60 -12 
M -8 64 
L 64 -8 
M -4 68 
L 68 -4 
M 0 72 
L 72 0 
M 4 76 
L 76 4 
M 8 80 
L 80 8 
M 12 84 
L 84 12 
M 16 88 
L 88 16 
M 20 92 
L 92 20 
M 24 96 
L 96 24 
M 28 100 
L 100 28 
M 32 104 
L 104 32 
M 36 108 
L 108 36 
" style="fill: #ff0000; stroke: #ff0000; stroke-width: 1.0; stroke-linecap: butt; stroke-linejoin: miter"/>
  </pattern>
  <pattern id="hd1d4aae730" patternUnits="userSpaceOnUse" x="0" y="0" width="72" height="72">
   <rect x="0" y="0" width="73" height="73" fill="none"/>
   <path d="M -36 36 
L 36 -36 
M -32 40 
L 40 -32 
M -28 44 
L 44 -28 
M -24 48 
L 48 -24 
M -20 52 
L 52 -20 
M -16 56 
L 56 -16 
M -12 60 
L 60 -12 
M -8 64 
L 64 -8 
M -4 68 
L 68 -4 
M 0 72 
L 72 0 
M 4 76 
L 76 4 
M 8 80 
L 80 8 
M 12 84 
L 84 12 
M 16 88 
L 88 16 
M 20 92 
L 92 20 
M 24 96 
L 96 24 
M 28 100 
L 100 28 
M 32 104 
L 104 32 
M 36 108 
L 108 36 
" style="fill: #0000ff; stroke: #0000ff; stroke-width: 1.0; stroke-linecap: butt; stroke-linejoin: miter"/>
  </pattern>
 </defs>
</svg>
