<?xml version="1.0" encoding="utf-8" standalone="no"?>
<!DOCTYPE svg PUBLIC "-//W3C//DTD SVG 1.1//EN"
  "http://www.w3.org/Graphics/SVG/1.1/DTD/svg11.dtd">
<svg xmlns:xlink="http://www.w3.org/1999/xlink" width="720pt" height="360pt" viewBox="0 0 720 360" xmlns="http://www.w3.org/2000/svg" version="1.1">
 <metadata>
  <rdf:RDF xmlns:dc="http://purl.org/dc/elements/1.1/" xmlns:cc="http://creativecommons.org/ns#" xmlns:rdf="http://www.w3.org/1999/02/22-rdf-syntax-ns#">
   <cc:Work>
    <dc:type rdf:resource="http://purl.org/dc/dcmitype/StillImage"/>
    <dc:date>2026-05-18T13:08:00.483458</dc:date>
    <dc:format>image/svg+xml</dc:format>
    <dc:creator>
     <cc:Agent>
      <dc:title>Matplotlib v3.10.8, https://matplotlib.org/</dc:title>
     </cc:Agent>
    </dc:creator>
   </cc:Work>
  </rdf:RDF>
 </metadata>
 <defs>
  <style type="text/css">*{stroke-linejoin: round; stroke-linecap: butt}</style>
 </defs>
 <g id="figure_1">
  <g id="patch_1">
   <path d="M 0 360 
L 720 360 
L 720 0 
L 0 0 
z
" style="fill: #ffffff"/>
  </g>
  <g id="axes_1">
   <g id="line2d_1">
    <path d="M 338.972727 315.336152 
L 26.427273 315.336152 
M 182.7 44.663848 
L 26.427273 315.336152 
M 182.7 44.663848 
L 338.972727 315.336152 
" clip-path="url(#p7703b8d384)" style="fill: none; stroke: #000000; stroke-width: 1.5; stroke-linecap: square"/>
   </g>
   <g id="PathCollection_1">
    <defs>
     <path id="m241827f629" d="M -3.535534 3.535534 
L 3.535534 3.535534 
L 3.535534 -3.535534 
L -3.535534 -3.535534 
z
" style="stroke: #ff0000"/>
    </defs>
    <g clip-path="url(#p7703b8d384)">
     <use xlink:href="#m241827f629" x="26.427273" y="315.336152" style="fill: #ff0000; stroke: #ff0000"/>
     <use xlink:href="#m241827f629" x="338.972727" y="315.336152" style="fill: #ff0000; stroke: #ff0000"/>
     <use xlink:href="#m241827f629" x="182.7" y="44.663848" style="fill: #ff0000; stroke: #ff0000"/>
    </g>
   </g>
   <g id="line2d_2"/>
   <g id="text_1">
    <!-- $\tilde{\mathbb{T}}_1$ -->
    <g style="fill: #0000ff" transform="translate(167.025 236.234082) scale(0.33 -0.33)">
     <defs>
      <path id="DejaVuSans-303" d="M -1621 4281 
L -1799 4453 
Q -1867 4516 -1919 4545 
Q -1971 4575 -2011 4575 
Q -2130 4575 -2186 4461 
Q -2242 4347 -2249 4091 
L -2639 4091 
Q -2633 4513 -2473 4742 
Q -2314 4972 -2030 4972 
Q -1911 4972 -1811 4928 
Q -1711 4884 -1596 4781 
L -1417 4609 
Q -1349 4547 -1297 4517 
Q -1246 4488 -1205 4488 
Q -1086 4488 -1030 4602 
Q -974 4716 -967 4972 
L -577 4972 
Q -583 4550 -742 4320 
Q -902 4091 -1186 4091 
Q -1305 4091 -1405 4134 
Q -1505 4178 -1621 4281 
z
" transform="scale(0.015625)"/>
      <path id="STIXNonUnicode-Italic-e160" d="M 4365 4179 
L 4301 3942 
L 2765 3942 
L 1722 0 
L 736 0 
L 1792 3942 
L 192 3942 
L 256 4179 
L 4365 4179 
z
M 2515 3872 
L 2016 3872 
L 1043 237 
L 1542 237 
L 2515 3872 
z
" transform="scale(0.015625)"/>
      <path id="DejaVuSans-31" d="M 794 531 
L 1825 531 
L 1825 4091 
L 703 3866 
L 703 4441 
L 1819 4666 
L 2450 4666 
L 2450 531 
L 3481 531 
L 3481 0 
L 794 0 
L 794 531 
z
" transform="scale(0.015625)"/>
     </defs>
     <use xlink:href="#DejaVuSans-303" transform="translate(53.809372 14.3125)"/>
     <use xlink:href="#STIXNonUnicode-Italic-e160" transform="translate(0 0.4375)"/>
     <use xlink:href="#DejaVuSans-31" transform="translate(47.257019 -15.96875) scale(0.7)"/>
    </g>
   </g>
  </g>
  <g id="axes_2">
   <g id="line2d_3">
    <path d="M 537.3 315.336152 
L 381.027273 315.336152 
M 537.3 315.336152 
L 693.572727 315.336152 
M 615.436364 180 
L 693.572727 315.336152 
M 615.436364 180 
L 537.3 44.663848 
M 615.436364 180 
L 537.3 315.336152 
M 459.163636 180 
L 381.027273 315.336152 
M 459.163636 180 
L 537.3 44.663848 
M 459.163636 180 
L 537.3 315.336152 
M 459.163636 180 
L 615.436364 180 
" clip-path="url(#p84fb8a76da)" style="fill: none; stroke: #000000; stroke-width: 1.5; stroke-linecap: square"/>
   </g>
   <g id="PathCollection_2">
    <g clip-path="url(#p84fb8a76da)">
     <use xlink:href="#m241827f629" x="381.027273" y="315.336152" style="fill: #ff0000; stroke: #ff0000"/>
     <use xlink:href="#m241827f629" x="693.572727" y="315.336152" style="fill: #ff0000; stroke: #ff0000"/>
     <use xlink:href="#m241827f629" x="537.3" y="44.663848" style="fill: #ff0000; stroke: #ff0000"/>
     <use xlink:href="#m241827f629" x="537.3" y="315.336152" style="fill: #ff0000; stroke: #ff0000"/>
     <use xlink:href="#m241827f629" x="615.436364" y="180" style="fill: #ff0000; stroke: #ff0000"/>
     <use xlink:href="#m241827f629" x="459.163636" y="180" style="fill: #ff0000; stroke: #ff0000"/>
    </g>
   </g>
   <g id="line2d_4"/>
   <g id="text_2">
    <!-- $\mathbb{T}_{1}$ -->
    <g style="fill: #0000ff" transform="translate(448.238636 276.570664) scale(0.23 -0.23)">
     <use xlink:href="#STIXNonUnicode-Italic-e160" transform="translate(0 0.703125)"/>
     <use xlink:href="#DejaVuSans-31" transform="translate(47.257019 -15.703125) scale(0.7)"/>
    </g>
   </g>
   <g id="text_3">
    <!-- $\mathbb{T}_{2}$ -->
    <g style="fill: #0000ff" transform="translate(604.511364 276.570664) scale(0.23 -0.23)">
     <defs>
      <path id="DejaVuSans-32" d="M 1228 531 
L 3431 531 
L 3431 0 
L 469 0 
L 469 531 
Q 828 903 1448 1529 
Q 2069 2156 2228 2338 
Q 2531 2678 2651 2914 
Q 2772 3150 2772 3378 
Q 2772 3750 2511 3984 
Q 2250 4219 1831 4219 
Q 1534 4219 1204 4116 
Q 875 4013 500 3803 
L 500 4441 
Q 881 4594 1212 4672 
Q 1544 4750 1819 4750 
Q 2544 4750 2975 4387 
Q 3406 4025 3406 3419 
Q 3406 3131 3298 2873 
Q 3191 2616 2906 2266 
Q 2828 2175 2409 1742 
Q 1991 1309 1228 531 
z
" transform="scale(0.015625)"/>
     </defs>
     <use xlink:href="#STIXNonUnicode-Italic-e160" transform="translate(0 0.703125)"/>
     <use xlink:href="#DejaVuSans-32" transform="translate(47.257019 -15.703125) scale(0.7)"/>
    </g>
   </g>
   <g id="text_4">
    <!-- $\mathbb{T}_{3}$ -->
    <g style="fill: #0000ff" transform="translate(526.375 141.234512) scale(0.23 -0.23)">
     <defs>
      <path id="DejaVuSans-33" d="M 2597 2516 
Q 3050 2419 3304 2112 
Q 3559 1806 3559 1356 
Q 3559 666 3084 287 
Q 2609 -91 1734 -91 
Q 1441 -91 1130 -33 
Q 819 25 488 141 
L 488 750 
Q 750 597 1062 519 
Q 1375 441 1716 441 
Q 2309 441 2620 675 
Q 2931 909 2931 1356 
Q 2931 1769 2642 2001 
Q 2353 2234 1838 2234 
L 1294 2234 
L 1294 2753 
L 1863 2753 
Q 2328 2753 2575 2939 
Q 2822 3125 2822 3475 
Q 2822 3834 2567 4026 
Q 2313 4219 1838 4219 
Q 1578 4219 1281 4162 
Q 984 4106 628 3988 
L 628 4550 
Q 988 4650 1302 4700 
Q 1616 4750 1894 4750 
Q 2613 4750 3031 4423 
Q 3450 4097 3450 3541 
Q 3450 3153 3228 2886 
Q 3006 2619 2597 2516 
z
" transform="scale(0.015625)"/>
     </defs>
     <use xlink:href="#STIXNonUnicode-Italic-e160" transform="translate(0 0.703125)"/>
     <use xlink:href="#DejaVuSans-33" transform="translate(47.257019 -15.703125) scale(0.7)"/>
    </g>
   </g>
   <g id="text_5">
    <!-- $\mathbb{T}_{4}$ -->
    <g style="fill: #0000ff" transform="translate(526.375 231.458613) scale(0.23 -0.23)">
     <defs>
      <path id="DejaVuSans-34" d="M 2419 4116 
L 825 1625 
L 2419 1625 
L 2419 4116 
z
M 2253 4666 
L 3047 4666 
L 3047 1625 
L 3713 1625 
L 3713 1100 
L 3047 1100 
L 3047 0 
L 2419 0 
L 2419 1100 
L 313 1100 
L 313 1709 
L 2253 4666 
z
" transform="scale(0.015625)"/>
     </defs>
     <use xlink:href="#STIXNonUnicode-Italic-e160" transform="translate(0 0.703125)"/>
     <use xlink:href="#DejaVuSans-34" transform="translate(47.257019 -15.703125) scale(0.7)"/>
    </g>
   </g>
  </g>
 </g>
 <defs>
  <clipPath id="p7703b8d384">
   <rect x="10.8" y="31.130233" width="343.8" height="297.739534"/>
  </clipPath>
  <clipPath id="p84fb8a76da">
   <rect x="365.4" y="31.130233" width="343.8" height="297.739534"/>
  </clipPath>
 </defs>
</svg>
